<svg xmlns="http://www.w3.org/2000/svg" xmlns:xlink="http://www.w3.org/1999/xlink" width="2048" height="2048"><g><svg xmlns="http://www.w3.org/2000/svg" xmlns:xlink="http://www.w3.org/1999/xlink" width="2048" height="2048"/><svg xmlns="http://www.w3.org/2000/svg" width="2048" height="2048" version="1.0" viewBox="0 0 2048 2048"><g fill="none" fill-opacity="1" transform="matrix(.1 0 0 -.1 0 2048)"><path d="M0 10240V0h20480v20480H0V10240z"/></g></svg><svg xmlns="http://www.w3.org/2000/svg" width="2048" height="2048" version="1.0" viewBox="0 0 2048 2048"><g fill="#6d8890" transform="matrix(.1 0 0 -.1 0 2048)"><path d="M15140 14568c-97-12-238-59-314-106-34-20-135-86-226-147s-209-132-262-158c-54-27-100-52-104-58-21-34 148-122 316-164 85-22 275-22 407-1 57 9 112 16 122 16 20 0 81-45 81-59 0-5-55-41-122-82-68-41-211-140-318-220-662-494-877-617-1275-733-260-76-481-103-760-93-358 13-654 79-1050 234-175 69-554 214-790 303-827 311-1560 439-2308 401-526-27-1015-133-1507-328-261-104-431-194-695-369-192-127-321-233-523-429-295-286-569-618-819-990-298-445-526-842-933-1624-203-391-323-575-491-755-177-188-358-330-518-404-192-89-463-123-653-84-221 46-400 177-481 352-24 53-32 88-42 195-17 181-49 251-137 296-41 21-111 25-155 8-34-13-90-64-110-102-41-79-35-288 13-440 54-169 132-293 265-423 99-95 146-128 266-188 187-94 343-128 578-128 255-1 469 52 720 177 231 115 470 317 668 565 179 225 271 383 526 900 182 370 267 525 381 690 95 138 140 197 220 285 25 28 54 63 65 79 20 28 20 28 17-85-10-315 146-692 403-976 87-96 219-211 315-275 99-65 321-175 473-234 242-93 383-179 519-316 143-144 220-281 276-487 23-87 25-115 26-291 1-180-1-204-27-315-45-192-175-563-297-850-56-131-60-197-15-271 18-28 47-58 70-71 22-13 153-59 290-104 1141-370 1141-370 1282-509 82-81 135-162 211-322 111-235 195-329 363-407 117-54 194-72 339-78 153-7 192 5 216 64 38 89-29 323-132 464-63 86-204 176-318 202-54 12-55 13-92 82-124 235-284 398-471 481-82 37-191 75-398 140-99 31-197 65-217 75-71 36-163 133-201 213-46 94-57 143-52 239 5 106 40 219 136 448 45 107 92 221 105 254 12 33 53 132 89 220 78 189 91 227 145 445 62 246 81 390 80 610-1 344-66 588-220 824-155 237-338 401-626 561-459 256-537 306-691 450-50 47-119 122-153 166-81 109-163 278-197 409-25 96-28 121-27 280 0 150 4 187 23 259 54 197 121 329 238 471 90 108 151 155 308 233 338 169 630 255 1125 331 52 8 97 12 99 10 6-6-45-23-149-50-316-85-634-247-816-416-126-117-252-313-301-467-53-163-22-378 83-590 126-250 249-381 569-606 351-246 547-435 693-671 118-189 186-364 224-570 31-172 31-488 0-660-38-208-153-530-274-767-28-54-49-99-47-101 2-1 20-12 40-24 98-59 364-370 490-572 190-307 387-822 504-1317l27-112 161-117c272-198 433-320 640-486 109-87 291-229 405-316 204-154 494-388 500-402 1-4-1535-8-3415-9-3193-2-3420-3-3452-19-46-23-72-61-78-113-6-54 24-105 77-132 33-16 332-17 5925-15 4889 3 5894 5 5916 16 84 44 82 193-4 239-30 17-137 18-1857 23-1004 3-1831 9-1838 13-7 5-24 27-38 49-67 106-179 193-292 228-55 17-100 20-318 24-255 4-255 4-317 35-68 33-153 96-340 249-67 55-212 173-322 263-110 89-247 201-305 248-290 237-406 396-505 693-64 190-64 188-52 181 22-12 81-57 197-149 143-112 298-222 370-262 104-58 613-260 802-319 110-34 273-42 372-19 97 23 197 79 252 140 102 113 134 194 259 661 103 385 219 783 241 826 13 26 13 26 721 33 389 4 1007 11 1373 16 987 14 1177 14 1235 0 145-36 361-167 557-339 182-160 253-241 343-394 111-188 143-233 208-293 162-150 544-274 643-209 103 67 52 352-96 536-67 84-143 146-232 192-51 26-87 53-113 85-22 26-69 81-105 122s-83 97-105 124c-60 75-374 414-444 479-117 108-233 175-391 225-110 35-529 135-775 186-93 19-271 57-395 85-124 27-265 57-315 66-79 15-306 62-533 111l-73 16 98 50c294 151 468 327 621 626 85 166 137 316 172 497 11 59 15 64 136 189 267 276 419 532 671 1136 182 436 340 691 546 883 227 211 457 324 782 384 77 14 149 18 315 18 238 0 281-6 559-85 172-49 281-69 401-76 180-11 290 25 388 127 53 55 60 59 103 59 92 0 153 35 277 161 90 91 122 145 122 203 0 53-13 70-67 94-26 11-178 75-338 142-506 213-547 230-720 315-93 45-191 99-217 119-27 20-81 81-122 134-118 157-212 233-389 317-64 30-157 69-208 85-182 60-466 96-674 87-136-6-338-32-367-48-14-7-32 1-80 39-114 89-210 127-363 142-114 11-123 11-225-2zm260-219c85-19 242-104 362-195 64-49 169-118 234-154s112-66 103-68c-20-4-208 62-283 100-34 17-116 64-183 105-157 95-253 140-328 154s-240 5-290-15c-19-8-33-11-30-7 8 14 133 61 199 76 75 16 157 18 216 4zm1183-153c117-22 333-93 452-151 112-53 165-99 240-204 101-144 170-198 391-309 133-67 659-296 737-321 33-11 51-31 27-31-17 0-32-74-28-138l3-63-55 7c-54 6-153 25-320 62-89 20-502 126-752 193-427 115-550 186-642 373-25 50-46 105-48 121-3 30-3 30 90 29l93-2 52-55c29-31 65-61 81-67 29-11 256-27 256-19 0 11-77 178-93 202-22 33-84 66-140 73-32 5-56 1-95-16-52-22-52-22-174 10-302 79-419 118-528 176-65 34-169 118-160 127 27 28 466 30 613 3zm-5921-1187c386-135 484-172 706-265 472-199 728-350 1081-639 332-272 578-557 766-885 172-300 278-567 326-817 6-35 15-63 19-63 31 0 14 404-25 570-47 207-140 458-207 560-18 28-5 19 59-38 125-113 262-276 359-427 93-147 204-421 241-595 25-122 25-441 0-560-39-179-118-331-233-443-141-137-275-204-597-298-92-26-172-51-177-54-16-10-12 11 4 25 20 16 67 143 99 265 110 420 59 938-135 1379-157 357-365 687-613 971-87 100-374 395-457 470-78 70-280 239-373 311-250 194-631 415-951 550-81 34-119 54-102 54 4 0 98-32 210-71zm4799-116c-130-142-219-338-268-596-21-111-26-528-7-547 9-9 0-38-36-114-27-56-83-183-125-282-177-416-311-630-614-979-178-205-168-205-100-3 46 136 72 240 115 455 98 494 141 667 235 940 170 492 390 814 769 1126 58 48 106 87 108 87s-33-39-77-87zm-7036-1552c214-57 440-219 594-425 100-133 131-185 258-430 314-603 539-894 934-1208 320-254 692-417 1142-499 114-21 127-25 127-44 0-11-14-141-30-290-16-148-46-434-65-635-46-476-82-778-99-835-32-103-118-165-231-165-69 0-145 20-335 89l-135 48-70 120c-90 154-143 222-219 280-142 107-284 151-517 160l-156 6-37 191c-20 105-88 466-151 801-206 1100-265 1316-477 1738-145 289-279 479-533 751-114 122-221 214-349 301-85 58-87 60-60 67 16 4 97 5 179 4 115-2 169-8 230-25zm4655-2482c129-28 361-80 515-116 154-35 393-87 530-114 138-28 356-73 485-100 129-28 345-73 480-100 680-139 824-197 1052-423 111-111 137-156 32-56-131 125-308 221-494 270-67 17-132 23-305 30-290 12-291 12-575 65-135 25-389 70-565 101-468 81-757 132-870 154-55 10-192 35-305 55s-311 59-440 86-246 49-260 49c-41 1-5 15 95 39 110 25 365 98 373 105 8 9-3 10 252-45zM2983 12001c-47-8-68-23-89-62-19-38-18-78 6-116 40-66 1-63 832-63 814 1 781-2 819 56 41 62 9 157-61 181-26 9-220 12-750 11-393 0-734-4-757-7zm-1178-891c-44-18-70-59-70-112 0-44 4-53 36-83 29-26 49-35 90-40 30-3 548-5 1151-3 1094 3 1097 3 1125 24 15 11 34 39 41 62 12 36 11 45-6 85-37 83 57 77-1219 76-620 0-1137-4-1148-9zm416-849c-43-23-71-67-71-114s46-100 102-115c22-6 240-8 588-4 552 5 552 5 580 29 34 28 54 82 45 122-3 15-19 41-35 56-37 35-5 34-656 38-471 4-523 3-553-12zm2310-2267c-17-14-36-43-42-64-10-32-9-44 7-77 37-76 13-73 695-73 606 0 606 0 640 23 80 53 90 147 20 194-34 23-34 23-662 23-627 0-627 0-658-26zm-1126-744c-61-25-91-109-61-168 35-67-56-63 1349-65 1387-2 1300-6 1337 56 25 41 25 83 0 124-41 67 53 63-1342 62-695 0-1272-4-1283-9zm1079-1369c-63-38-81-99-49-161 33-64-82-60 1654-60 1002 0 1589 4 1605 10 40 15 68 67 63 118-3 24-13 52-23 64-45 50 27 48-1651 48-1526 0-1569-1-1599-19z"/></g></svg><svg xmlns="http://www.w3.org/2000/svg" width="2048" height="2048" version="1.0" viewBox="0 0 2048 2048"><g fill="#4b646e" transform="matrix(.1 0 0 -.1 0 2048)"><path d="M15080 14555c-129-26-217-69-441-217-118-79-256-163-307-188-50-24-92-50-92-58 0-39 153-116 305-153 103-24 249-24 415 1 104 15 129 16 150 5 27-14 66-53 59-59-2-2-67-42-144-90s-255-173-395-278c-558-416-805-555-1178-664-355-103-689-124-1070-69-286 42-489 106-1162 367-485 188-611 233-870 311-343 103-661 170-1010 212-182 22-715 31-920 16-470-36-936-143-1395-323-328-129-708-355-980-583-154-130-518-503-655-671-402-494-770-1085-1242-1994-321-616-412-755-648-989-245-242-421-348-677-407-195-45-421-31-575 35-111 47-227 139-290 229-57 82-80 156-87 283-6 103-11 124-38 180-47 94-129 141-217 125-48-9-112-59-138-108-21-39-23-55-22-188 1-127 4-156 28-234 28-94 88-221 136-290 161-234 444-402 756-451 142-23 397-16 526 14 457 105 794 342 1149 806 122 160 221 336 440 780 81 165 175 351 209 414 99 186 247 403 374 551 41 47 85 99 99 115l26 30-6-81c-10-137 28-339 98-519 112-290 340-571 613-757 104-71 340-188 487-243 225-83 365-169 510-314 193-192 282-389 309-681 23-238-18-441-172-870-38-107-97-258-130-335-89-206-91-274-8-369 36-40 78-56 735-266 242-78 497-164 567-192 267-104 383-218 520-508 94-199 160-286 272-359 149-98 434-158 568-121 80 23 99 106 58 264-60 235-207 391-428 452-62 17-62 17-118 118-119 215-253 351-429 436-90 44-176 74-509 179-54 18-116 41-137 51-40 21-65 27-39 10 61-39-196 50-263 91-62 38-131 115-123 136 3 8 2 11-4 8-14-9-37 43-49 111-13 70-2 207 24 294 31 104 87 263 120 335 49 109 147 444 201 685 22 102 30 359 14 469-37 254-164 498-356 687-135 133-255 211-532 351-343 173-421 219-582 341-108 82-163 135-257 246-176 209-283 435-328 695-40 226 3 527 107 747 82 175 253 368 470 530 94 70 270 184 285 184 17 0-74-75-107-87-29-11-30-13-7-10 20 3 25 1 17-8-16-19 0-25 21-7 11 9 41 43 67 75 134 167 623 384 1077 477 143 30 520 87 650 99 600 55 1212-16 1860-216 656-202 1266-444 1618-641 220-124 334-203 578-403 167-137 263-227 376-354 49-55 71-74 70-60 0 11 3 30 7 43 5 13 3 22-3 22s-11 4-11 8c0 13 207-95 270-141 73-53 110-88 104-98-3-5 2-6 10-3 17 6 202-169 292-276 197-236 352-542 408-800 51-241 37-536-35-734-41-114-102-210-189-297-134-134-296-216-603-303-134-38-213-67-487-173-136-52-262-114-268-131-3-11 140 21 303 68 61 18 119 34 130 37 20 4 380-72 820-173 132-31 382-84 555-119s369-75 435-90c66-14 239-50 385-80 766-156 909-214 1153-474 42-46 77-87 77-93 0-12-2-11-90 72-142 134-341 236-535 276-40 8-192 19-360 25-159 6-298 12-307 12-9 1-14 5-12 9 8 12-71 9-83-3-25-25-1939-41-2164-19-202 21-350 79-449 179-84 83-120 167-120 277 0 65 10 91 110 298 164 338 208 465 250 723 40 237 35 437-16 705-59 310-296 778-534 1054-28 33-81 95-119 139-174 203-447 452-637 583-27 19-80 56-118 83-99 70-331 207-475 279-325 162-716 289-1071 348-158 26-180 27-500 26-350-1-448-9-694-55-110-21-399-113-511-163-75-34-297-155-390-214-127-80-471-450-491-527-13-53 124-313 236-448 92-110 181-186 395-338 280-198 425-321 542-462 201-242 327-502 380-787 14-74 18-148 18-335 0-212-3-253-23-350-44-210-165-537-277-751l-44-84 30-16c51-26 260-243 350-364 134-178 193-276 289-473 139-286 269-656 356-1011 35-143 42-161 69-182 17-13 147-110 290-215s357-269 475-364c118-94 311-244 428-333 178-135 502-396 502-405 0-1-1547-4-3437-5-3002-3-3441-6-3466-19-34-17-57-68-56-120 1-37 1-38 9-8 5 24 8 26 14 13 4-9 3-26-3-37-10-17-6-26 18-53l29-33 639-1c2709-6 9828-2 9948 4 147 9 148 9 48 10-63 1-104 6-109 13-5 8 3 10 25 7 18-3 34-2 36 2 6 10-162 23-177 14-7-4-8-3-4 4s26 13 49 14c37 1 38 2 10 5-18 2-33 8-33 12 0 13 28 33 38 27 5-3 22-1 38 4 28 8 28 9 7 15-27 9-31 25-6 25 14 0 14 3 5 12-10 10-15 10-23-2-8-13-11-12-24 4-26 34-15 62 13 34 9-9 12-9 12 0 0 7 9 12 19 12 32 0 35 20 4 22-15 1 69 5 187 8s-274 7-871 8-1222 5-1388 9l-302 6-39 57c-75 110-155 176-273 223-47 19-79 22-322 26-270 6-270 6-327 34-61 30-168 109-366 271-68 55-228 186-356 290-466 380-504 416-598 561-53 80-121 224-147 310-12 39-33 98-46 132-26 65-30 83-17 83 4 0 86-61 181-135 218-169 362-267 454-310 244-112 699-282 830-309 266-55 510 51 620 270 45 89 80 201 162 509 37 138 86 318 110 400 84 286 124 420 133 446 10 26 10 26 238 32 125 4 381 7 568 7 188 0 820 7 1405 15 1192 16 1108 20 1269-55 171-80 341-208 546-408 117-115 145-153 254-338 83-142 137-209 212-265 102-76 258-145 394-173 193-40 252-6 250 145-2 91-19 160-65 254-69 145-184 263-323 332-46 23-83 50-106 78-292 358-654 744-770 822-71 48-178 98-270 127-108 35-516 132-770 185-107 22-307 64-445 94-137 30-376 80-530 112-408 83-376 67-259 127 301 153 486 343 648 666 70 138 156 412 156 492 0 22 15 43 66 92 311 296 454 532 755 1242 110 259 217 460 327 616 62 88 258 283 362 359 200 149 461 239 782 272 221 22 413 0 698-82 203-58 323-79 453-80 181-1 268 30 356 126 44 49 49 52 109 57 91 9 145 40 254 148 100 99 137 157 138 217 0 53-33 77-205 147-313 126-682 284-835 355-282 132-316 156-426 296-138 178-259 268-475 356-217 89-446 129-727 129-154 0-412-27-443-45-5-4-40 16-78 44-85 64-178 107-267 126-85 18-284 18-374 0zm363-216c91-30 205-92 277-150 129-105 413-274 448-267 9 2 16 17 18 38 3 19 10 40 18 45 11 8-2 19-57 48-67 34-178 116-185 136-4 11 58 20 213 30 146 9 313 0 431-24 178-37 460-147 555-217 17-13 63-66 101-118 39-52 87-112 107-134 52-56 167-129 316-201 141-69 677-300 719-311 36-9 38-16 15-60-27-52-22-152 11-196 12-16 20-31 18-34-17-16-148-65-211-78-125-26-325-10-497 39-262 75-456 113-590 116-102 2-425 35-535 55-279 49-491 234-651 568-30 61-48 87-81 110-24 16-41 31-39 33s22-3 45-10c32-12 39-12 33-2-9 16-116 95-210 153-38 24-105 78-148 119-43 42-106 96-140 122-33 25-59 51-57 58 2 6-1 14-6 18-18 10-12 25 7 19 11-4 8 1-8 15-33 27-90 35-213 29-95-5-107-8-184-47-46-22-83-39-83-37 0 7 126 85 165 101 135 56 291 70 398 34zm-230-951c-191-201-281-312-418-513-190-280-332-430-555-587-333-234-726-303-1101-193-69 20-239 90-330 135-132 67-374 231-319 217 115-30 454-33 660-7 166 21 423 87 605 156 210 78 475 227 705 394 240 173 410 274 670 394 47 22 94 45 105 53 42 28 34 10-22-49zm619-280c49-103 189-248 254-264 28-7 32-24 6-24-41 0-224-125-336-229-72-68-215-237-268-316-106-160-196-317-237-414-31-74-47-99-53-89-7 9-8 4-4-14 5-21-5-50-38-115-24-49-73-160-110-248-157-377-301-624-516-885-136-165-282-328-294-329-5-1-4 5 1 12 16 20 92 232 118 330 14 50 52 227 85 392 76 383 125 581 196 792 185 551 397 867 802 1198 107 88 337 235 368 235 6 0 17-15 26-32zm-6987-392c367-49 705-178 1040-397 151-99 231-158 340-255 80-71 361-354 426-430 24-28 67-77 94-109 228-268 442-573 627-895 103-179 260-490 302-600 16-41 40-102 52-135 13-32 22-61 20-63s-24 12-49 30c-24 18-89 65-143 105-104 75-264 226-350 328-28 33-81 106-118 163-38 56-72 102-77 102-4 0-23 24-41 53-97 157-296 445-375 542-261 320-365 433-547 594-326 287-674 478-1021 560-210 50-340 64-545 59-107-3-179-2-160 2l35 7-40 3c-25 2-32 4-17 7 19 4 22 11 22 49 0 24 5 44 10 44 11 0-4 32-31 65-9 11-19 32-23 48-3 15-13 27-21 27-9 0-15 10-16 23-1 27 2 71 6 75 1 2 40 7 86 12 111 12 376 4 514-14zm-625-16c0-13-7-20-20-20-23 0-25 5-7 25 17 20 27 18 27-5zm-67 3c-7-2-19-2-25 0-7 3-2 5 12 5s19-2 13-5zm-66-9c13-4 20-10 17-15-6-11-49-12-84-2l-25 7 25 7c34 9 41 10 67 3zm292-1339c208-44 428-183 594-374 84-97 191-268 307-491 198-379 301-545 466-750 90-113 249-277 369-380 355-308 752-491 1254-580 57-10 107-22 111-27 4-4 4-39-1-78-22-194-72-676-99-960-38-403-75-697-95-755-18-55-62-103-118-132-32-16-60-21-117-22-66 0-94 7-225 53-82 29-171 59-197 67-44 14-50 20-89 92-105 192-179 284-288 356-136 89-270 124-491 128l-135 3-17 70c-10 39-44 216-77 395-169 922-265 1403-322 1610-161 584-407 1021-809 1434-128 131-215 205-346 292l-89 59 100 6c125 8 227 2 314-16zm5851-1189c0-2-8-10-17-17-16-13-17-12-4 4s21 21 21 13zM4470 4995c0-8-4-17-10-20-6-4-10 5-10 20s4 24 10 20c6-3 10-12 10-20zm-439-18c-6-8-8-17-4-20 3-4 1-7-5-7-15 0-15 13 0 28 16 16 23 15 9-1zm10433-2c-4-8-7-15-9-15s-5 7-9 15c-3 9 0 15 9 15s12-6 9-15zm-10404-51c0-8-5-12-10-9-6 4-8 11-5 16 9 14 15 11 15-7zm20-66c0-17-23-3-26 16-2 14 0 15 12 5 8-6 14-16 14-21zm463-5c-13-2-33-2-45 0-13 2-3 4 22 4s35-2 23-4zm94-19c-3-3-12-4-19-1-8 3-5 6 6 6 11 1 17-2 13-5zm-94-11c-13-2-33-2-45 0-13 2-3 4 22 4s35-2 23-4zm11257 9203c0-2 7-7 16-10 8-3 12-2 9 4-6 10-25 14-25 6zm1005-161c-27-13-57-24-65-24-10 0-8 4 5 9 17 7 18 9 2 9-9 1-22-9-28-22-8-18-25-27-72-37l-62-14 60-9c33-4 79-10 102-13 35-4 46-11 64-40 39-64 84-85 209-97 73-7 113-8 120-1 12 12-52 169-83 202-60 65-161 79-252 37zm1498-892c9-2 25-2 35 0 9 3 1 5-18 5s-27-2-17-5zm-3121-843c0-19 2-27 5-17 2 9 2 25 0 35-3 9-5 1-5-18zm1-85c0-22 2-30 4-17 2 12 2 30 0 40-3 9-5-1-4-23zm-1-65c0-14 2-19 5-12 2 6 2 18 0 25-3 6-5 1-5-13zm-7134 703c6-2 18-2 25 0 6 3 1 5-13 5s-19-2-12-5zm-783 207c-3-5-2-10 4-10 5 0 13 5 16 10 3 6 2 10-4 10-5 0-13-4-16-10zm-40-41c-11-17 1-21 15-4 8 9 8 15 2 15s-14-5-17-11zm-35-34c-7-9-8-15-2-15 5 0 12 7 16 15 3 8 4 15 2 15s-9-7-16-15zm-45-45c-3-6 1-7 9-4 18 7 21 14 7 14-6 0-13-4-16-10zm-66-87c-13-16-12-17 4-4 9 7 17 15 17 17 0 8-8 3-21-13zm-522-38c-9-19-15-35-13-35s13 16 25 35c11 19 17 35 13 35-5 0-16-16-25-35zm-42-76c-4-6-5-12-2-15 2-3 7 2 10 11 7 17 1 20-8 4zm-3593-603c-33-30-37-40-37-81s5-51 36-80c29-26 49-35 90-40 30-3 374-5 766-3 706 3 712 3 740 24 34 26 58 83 49 120-4 15-22 42-41 61l-33 33H2960l-38-34zm-1097-853c-39-10-75-44-86-81-15-50 7-104 53-132 33-20 47-20 1177-20h1143l34 34c27 27 34 42 34 73 0 43-28 96-62 115-19 10-240 13-1148 15-619 1-1134-1-1145-4zm11661-122c-3-5 1-14 8-20 12-10 13-8 9 8-6 23-9 25-17 12zm-11280-742c-31-24-56-69-56-100 0-34 37-85 74-103 30-14 100-16 586-16 490 0 556 2 586 16 69 33 87 129 35 182-17 16-44 32-62 36-17 3-280 6-584 6-545 0-553 0-579-21zm2352-2240c-15-6-36-25-48-43-50-83-3-168 101-181 29-3 308-5 619-3 627 3 611 2 646 70 36 70 9 137-65 158-48 13-1216 12-1253-1zm3348-126c-6-14-5-15 5-6 7 7 10 15 7 18s-9-2-12-12zm-4490-633c-40-12-64-38-77-80-15-48 8-102 53-130 33-20 47-20 1305-20 1271 0 1271 0 1302 25 16 14 35 41 41 60 10 30 9 41-7 72-10 20-31 46-46 57-28 21-32 21-1285 23-691 1-1270-2-1286-7zm1104-1357c-96-19-130-131-59-199l30-29 1562-3c859-2 1581 0 1604 3 108 15 137 160 41 212-31 17-106 18-1593 19-858 1-1571-1-1585-3zm11345-850c11-3 36-17 55-31l34-26-19 26c-20 26-45 39-75 37-8-1-6-3 5-6zm97-123c0-14 2-19 5-12 2 6 2 18 0 25-3 6-5 1-5-13zm-1069-107c9-2 23-2 30 0 6 3-1 5-18 5-16 0-22-2-12-5z"/></g></svg><svg xmlns="http://www.w3.org/2000/svg" width="2048" height="2048" version="1.0" viewBox="0 0 2048 2048"><g fill="#0d1f26" transform="matrix(.1 0 0 -.1 0 2048)"><path d="M15100 14555c-153-27-217-58-475-230-104-70-234-148-287-174-54-25-97-51-98-57-1-34 140-108 275-144 142-38 276-36 546 6 31 5 41 1 72-26 21-18 37-35 37-39s-61-45-136-92c-75-46-195-129-267-183-696-525-953-670-1407-791-285-76-596-92-925-50-315 41-493 95-1125 340-876 339-1176 430-1709 520-226 38-414 55-686 61-399 10-728-18-1117-97-416-84-901-264-1243-462-125-72-387-253-490-338-134-110-486-464-617-619-347-412-713-972-1095-1675-63-115-128-239-283-540-258-501-429-733-714-971-244-203-485-297-766-298-165-1-248 17-375 79-116 57-202 127-257 212-65 99-79 143-89 274-10 142-34 213-89 263-37 33-92 56-136 56-11 0-43-11-71-25-102-51-135-148-116-338 61-606 641-1004 1330-913 198 26 432 106 607 208 261 152 559 451 758 763 41 64 258 459 258 469 0 3 43 94 96 202 175 359 269 524 441 769 42 61 137 177 163 200 12 11 36 40 52 63 35 51 53 44 37-13-8-29-8-70 0-150 36-353 182-660 445-932 194-202 400-331 741-463 237-92 389-184 520-316 185-186 281-397 307-672 23-237-16-446-156-839-41-117-105-283-142-369-84-198-91-251-44-332 17-29 45-62 63-72 18-11 145-56 282-101 1132-366 1147-372 1293-513 85-82 127-144 217-327 41-85 98-184 125-220 108-144 277-230 515-259 165-21 257 4 271 75 14 76-20 234-73 339-78 155-219 265-388 305-49 12-51 13-90 89-67 129-130 214-222 303-154 149-220 178-773 348-52 16-144 44-205 61-151 43-244 97-301 175-114 152-106 328 31 680 115 296 214 628 250 840 20 116 23 347 5 446-43 245-165 475-348 657-149 148-220 195-522 347-474 239-659 369-865 610-218 256-349 622-332 924 20 327 127 586 337 814 37 40 215 196 285 248 58 45 258 169 271 169 3 0 47 28 97 61 241 161 665 319 1042 388 349 64 559 90 815 100s480-1 725-34c164-22 577-99 595-110 4-2 42-13 86-25 128-34 325-96 551-176 116-41 214-74 217-74 14 0 370-136 491-187 394-167 597-273 828-429 241-164 527-409 700-601 27-29 50-53 53-53 4 0 4 18 2 40s-1 40 2 40c13 0 202-101 247-131 147-99 423-372 536-529 133-187 277-516 312-717 72-415-18-781-246-999-141-134-286-204-602-294-78-22-196-62-262-89s-153-61-193-76c-42-16-71-32-69-39 3-6 10-10 16-8 7 1 10-2 6-8-3-6-10-8-15-5-4 3-10-2-14-10-7-19-14-20 96 11 119 34 153 38 208 25 25-6 149-33 275-61 127-27 328-72 448-100s381-84 580-125c199-40 472-97 607-125s310-65 390-81c328-69 535-130 663-195 94-49 248-174 329-269 77-91 56-96-34-9-99 95-144 127-263 186-115 58-222 93-327 109-104 16-557 17-1728 5-1186-11-1281-5-1482 101-133 70-194 143-233 278-26 89-17 154 40 272 160 330 191 399 225 504 44 131 86 323 99 449 5 47 8 153 7 235-8 425-159 839-459 1260-162 227-463 545-712 750-33 27-65 54-72 60-7 5-34 25-60 43s-82 57-124 87c-209 149-510 311-762 409-450 177-821 258-1192 261-168 1-445-13-605-31-193-21-483-101-694-190-76-32-308-160-371-205-35-25-32-23 60 20 138 65 387 140 590 177 142 26 546 31 711 9 448-59 869-241 1277-552 226-173 579-545 837-883 321-419 616-934 781-1364 21-55 37-101 35-104-2-2-44 25-94 60-283 200-437 350-574 558-31 47-65 94-75 105-11 11-35 45-55 75-297 453-507 722-762 975-379 376-705 578-1122 695-110 31-360 70-451 70-144 0-385-20-488-41-239-48-502-154-675-273-70-48-274-242-348-330l-33-40 38-55c78-116 246-270 453-416 373-264 532-414 683-645 135-208 207-390 246-624 74-440 4-825-245-1345l-74-155 37-30c74-59 196-182 275-276 292-348 526-858 693-1515 44-171 58-213 77-227 13-9 138-102 278-205 289-213 268-197 519-398 103-82 277-218 386-301 236-178 571-451 695-564 49-45 100-90 114-101 25-19 44-20 535-26 453-6 511-4 516 9 6 16-50 192-76 240-29 52-121 168-168 211-64 57-160 103-241 116-36 6-165 11-286 11-221 0-221 0-290 35-75 37-150 92-349 255-71 58-229 187-350 285-459 373-519 428-603 552-56 83-129 231-162 332-16 47-40 117-55 155-14 38-24 71-21 73 6 7 79-45 226-162 160-127 281-211 375-261 122-65 571-246 749-302 275-86 498-51 651 103 101 101 133 182 255 635 88 325 112 412 190 670 29 96 55 183 57 192 7 24 74 27 883 32 393 3 1091 11 1551 17 949 14 894 17 1063-68 176-88 295-176 514-380 117-109 180-193 297-399 95-167 215-268 408-342 112-44 278-78 330-68 59 11 81 46 85 133 7 137-39 271-142 406-64 85-139 148-236 197-48 25-86 52-105 77-16 21-64 76-105 123s-93 107-115 135c-63 79-354 393-435 469-138 130-265 196-493 256-161 43-418 103-592 139-82 18-262 56-400 86-137 30-338 73-445 94-376 76-545 113-553 121-5 4 30 27 77 50 293 143 470 318 630 622 91 171 148 334 176 496 11 68 11 68 143 203 148 152 216 241 329 427 80 130 230 446 345 722 110 264 244 515 354 662 70 94 232 254 336 332 259 195 636 298 1033 283 154-6 251-25 485-91 179-51 267-68 395-73 195-9 284 19 383 120 58 58 61 60 128 67 89 10 140 40 247 149 81 81 132 160 132 204 0 24-26 73-42 80-7 3-51 21-98 40-471 190-947 400-1130 497-70 38-136 101-233 225-91 116-190 195-332 265-145 71-267 112-412 139-283 53-571 53-829 1-52-11-52-11-120 41-38 29-97 65-131 80-119 55-319 73-483 44zm325-206c76-21 220-99 303-164 101-80 198-143 306-198 83-43 96-47 96-35 1 4 7 23 15 42 8 20 15 37 15 39s-26 20-57 40c-32 20-80 56-108 80l-49 44 84 13c108 18 401 18 505 1 162-26 384-99 530-174 93-48 153-105 244-231 78-108 147-161 331-255 163-83 632-287 793-344 16-6 16-8 2-31-42-64-42-165 1-215 13-16 24-31 24-33 0-11-141-69-205-84-55-13-101-15-215-11-125 5-164 10-280 41-300 80-429 105-595 116-235 16-519 48-606 70-248 60-445 241-597 545-56 112-63 120-147 165-33 18-64 36-69 41-16 15 18 10 40-5 15-11 22-12 33-3 12 10 13 9 7-2-10-16 10-31 43-31 17 0-15 27-112 94-75 52-182 136-237 188-55 51-127 109-160 129-54 33-69 37-152 43-201 13-250 11-296-13-66-34-60-19 10 27 129 84 241 120 373 121 50 1 108-4 130-10zm-191-941c-172-180-305-345-442-547-168-248-292-383-487-531-173-130-329-209-515-257-132-35-357-43-497-18-263 47-472 143-817 378-46 31-47 31 59 12 104-19 441-19 595-1 158 19 318 57 512 120 267 87 537 228 785 408 224 163 329 228 578 354 143 73 264 133 270 133 5 1-13-23-41-51zm591-278c9-29 115-169 161-213 21-21 60-48 87-60 26-12 47-25 47-28s-17-11-38-17c-85-26-252-153-393-298-106-110-153-172-260-344-118-187-130-210-183-335-26-60-76-171-111-245s-80-175-100-225c-117-286-248-527-394-720-100-133-451-537-451-519 0 3 13 24 29 47 67 99 140 340 207 692 94 489 162 742 285 1060 113 292 298 583 496 777 144 142 329 291 442 358 58 35 115 69 126 76 29 19 43 17 50-6zm-7412-1779c217-57 444-214 597-413 96-123 158-227 293-485 276-526 458-775 769-1050 259-229 490-372 779-481 170-65 518-152 604-152 13 0 26-4 30-9 5-9-26-328-55-566-5-44-26-249-45-455-52-547-78-740-110-807-56-114-176-158-325-118-59 15-335 111-360 124-8 5-42 56-75 115-114 203-197 291-340 361-113 56-207 76-392 82-138 5-163 8-167 22-9 32-46 221-86 441-122 673-248 1312-305 1538-129 514-342 951-632 1298-199 237-362 390-540 507l-95 62 63 6c119 12 308 3 392-20zm8400 2515c-29-14-53-29-53-34s-18-17-40-27c-45-20-38-35 18-35 23 0 40-8 58-27 88-99 100-105 241-111 62-3 113-2 113 2 0 3-4 14-10 24-5 9-26 52-45 95-45 96-87 129-173 134-45 3-68-1-109-21zM2954 11986c-43-19-64-53-64-104 0-37 6-50 34-78l34-34h1534l34 34c28 28 34 41 34 78 0 50-18 82-60 103-41 21-1497 22-1546 1zm-1168-897c-14-11-33-34-42-50-19-39-6-84 37-125l30-29h2311l24 28c32 37 39 71 25 118-8 27-23 46-44 59-31 19-60 20-1173 20-1141 0-1141 0-1168-21zm426-838c-39-25-67-79-59-113 10-37 46-79 83-94 27-11 136-14 566-14 322 0 547 4 569 10 50 14 80 50 86 104 5 42 3 48-30 81l-35 35h-304c-168 0-426 3-574 6-260 6-270 5-302-15zm2351-2245c-40-18-73-70-73-114 0-25 9-43 34-68l34-34h622c558 0 625 2 650 16 65 39 80 125 31 175-29 29-29 29-193 29-90 0-368 2-618 5-390 5-460 4-487-9zm-1108-756c-67-9-83-17-100-51-25-47-19-102 13-137 28-30 28-30 202-36 96-4 675-6 1287-4 1110 3 1112 3 1140 24 51 38 56 117 9 170-18 22-35 29-82 35-75 9-2402 9-2469-1zm1011-1390c-19-17-37-44-41-59-8-38 16-95 51-118 27-17 95-18 1574-20 850-1 1569 2 1599 6 71 10 101 42 101 108 0 38-5 50-34 79l-34 34H4501l-35-30z"/></g></svg></g></svg>